<mxfile host="app.diagrams.net" agent="Mozilla/5.0 (Macintosh; Intel Mac OS X 10_15_7) AppleWebKit/537.36 (KHTML, like Gecko) Chrome/134.0.0.0 Safari/537.36" version="26.1.1">
  <diagram name="第 1 页" id="SUoQcs8Q0R7QAyOxsdit">
    <mxGraphModel dx="1355" dy="3100" grid="1" gridSize="10" guides="1" tooltips="1" connect="1" arrows="1" fold="1" page="1" pageScale="1" pageWidth="827" pageHeight="1169" math="0" shadow="0">
      <root>
        <mxCell id="0" />
        <mxCell id="1" parent="0" />
        <mxCell id="J7T1MlvASusOLPAvzm8r-98" value="" style="rounded=0;whiteSpace=wrap;html=1;dashed=1;dashPattern=12 12;fillColor=none;" vertex="1" parent="1">
          <mxGeometry x="910" y="85" width="360" height="255" as="geometry" />
        </mxCell>
        <mxCell id="J7T1MlvASusOLPAvzm8r-66" value="" style="rounded=0;whiteSpace=wrap;html=1;dashed=1;dashPattern=12 12;fillColor=none;" vertex="1" parent="1">
          <mxGeometry x="910" y="520" width="360" height="510" as="geometry" />
        </mxCell>
        <mxCell id="J7T1MlvASusOLPAvzm8r-58" value="" style="rounded=0;whiteSpace=wrap;html=1;fillColor=none;" vertex="1" parent="1">
          <mxGeometry x="500" y="680" width="280" height="310" as="geometry" />
        </mxCell>
        <mxCell id="J7T1MlvASusOLPAvzm8r-56" value="" style="rounded=0;whiteSpace=wrap;html=1;fillColor=none;" vertex="1" parent="1">
          <mxGeometry x="500" y="80" width="280" height="570" as="geometry" />
        </mxCell>
        <mxCell id="J7T1MlvASusOLPAvzm8r-60" value="" style="rounded=0;whiteSpace=wrap;html=1;dashed=1;dashPattern=12 12;fillColor=none;" vertex="1" parent="1">
          <mxGeometry x="460" y="40" width="360" height="1010" as="geometry" />
        </mxCell>
        <mxCell id="J7T1MlvASusOLPAvzm8r-1" value="" style="shape=cylinder3;whiteSpace=wrap;html=1;boundedLbl=1;backgroundOutline=1;size=15;" vertex="1" parent="1">
          <mxGeometry x="120" y="370" width="60" height="80" as="geometry" />
        </mxCell>
        <mxCell id="J7T1MlvASusOLPAvzm8r-2" value="ods_campaign_&lt;br&gt;product_subcategory_fpd" style="text;html=1;align=center;verticalAlign=middle;resizable=0;points=[];autosize=1;strokeColor=none;fillColor=none;" vertex="1" parent="1">
          <mxGeometry x="70" y="455" width="160" height="40" as="geometry" />
        </mxCell>
        <mxCell id="J7T1MlvASusOLPAvzm8r-3" value="" style="shape=cylinder3;whiteSpace=wrap;html=1;boundedLbl=1;backgroundOutline=1;size=15;" vertex="1" parent="1">
          <mxGeometry x="120" y="520" width="60" height="80" as="geometry" />
        </mxCell>
        <mxCell id="J7T1MlvASusOLPAvzm8r-4" value="ods_category_fpd" style="text;html=1;align=center;verticalAlign=middle;resizable=0;points=[];autosize=1;strokeColor=none;fillColor=none;" vertex="1" parent="1">
          <mxGeometry x="90" y="610" width="120" height="30" as="geometry" />
        </mxCell>
        <mxCell id="J7T1MlvASusOLPAvzm8r-5" value="" style="shape=cylinder3;whiteSpace=wrap;html=1;boundedLbl=1;backgroundOutline=1;size=15;" vertex="1" parent="1">
          <mxGeometry x="250" y="520" width="60" height="80" as="geometry" />
        </mxCell>
        <mxCell id="J7T1MlvASusOLPAvzm8r-6" value="ods_customer_fpd" style="text;html=1;align=center;verticalAlign=middle;resizable=0;points=[];autosize=1;strokeColor=none;fillColor=none;" vertex="1" parent="1">
          <mxGeometry x="220" y="610" width="120" height="30" as="geometry" />
        </mxCell>
        <mxCell id="J7T1MlvASusOLPAvzm8r-7" value="" style="shape=cylinder3;whiteSpace=wrap;html=1;boundedLbl=1;backgroundOutline=1;size=15;" vertex="1" parent="1">
          <mxGeometry x="250" y="370" width="60" height="80" as="geometry" />
        </mxCell>
        <mxCell id="J7T1MlvASusOLPAvzm8r-8" value="ods_customer_&lt;br&gt;product_rating_ipd" style="text;html=1;align=center;verticalAlign=middle;resizable=0;points=[];autosize=1;strokeColor=none;fillColor=none;" vertex="1" parent="1">
          <mxGeometry x="220" y="820" width="120" height="40" as="geometry" />
        </mxCell>
        <mxCell id="J7T1MlvASusOLPAvzm8r-9" value="" style="shape=cylinder3;whiteSpace=wrap;html=1;boundedLbl=1;backgroundOutline=1;size=15;" vertex="1" parent="1">
          <mxGeometry x="120" y="240" width="60" height="80" as="geometry" />
        </mxCell>
        <mxCell id="J7T1MlvASusOLPAvzm8r-10" value="ods_marketing_&lt;br&gt;campaigns_fpd" style="text;html=1;align=center;verticalAlign=middle;resizable=0;points=[];autosize=1;strokeColor=none;fillColor=none;" vertex="1" parent="1">
          <mxGeometry x="95" y="325" width="110" height="40" as="geometry" />
        </mxCell>
        <mxCell id="J7T1MlvASusOLPAvzm8r-11" value="" style="shape=cylinder3;whiteSpace=wrap;html=1;boundedLbl=1;backgroundOutline=1;size=15;" vertex="1" parent="1">
          <mxGeometry x="250" y="240" width="60" height="80" as="geometry" />
        </mxCell>
        <mxCell id="J7T1MlvASusOLPAvzm8r-12" value="ods_orderitem_ipd" style="text;html=1;align=center;verticalAlign=middle;resizable=0;points=[];autosize=1;strokeColor=none;fillColor=none;" vertex="1" parent="1">
          <mxGeometry x="90" y="820" width="120" height="30" as="geometry" />
        </mxCell>
        <mxCell id="J7T1MlvASusOLPAvzm8r-13" value="" style="shape=cylinder3;whiteSpace=wrap;html=1;boundedLbl=1;backgroundOutline=1;size=15;" vertex="1" parent="1">
          <mxGeometry x="120" y="730" width="60" height="80" as="geometry" />
        </mxCell>
        <mxCell id="J7T1MlvASusOLPAvzm8r-14" value="" style="shape=cylinder3;whiteSpace=wrap;html=1;boundedLbl=1;backgroundOutline=1;size=15;" vertex="1" parent="1">
          <mxGeometry x="250" y="730" width="60" height="80" as="geometry" />
        </mxCell>
        <mxCell id="J7T1MlvASusOLPAvzm8r-15" value="" style="shape=cylinder3;whiteSpace=wrap;html=1;boundedLbl=1;backgroundOutline=1;size=15;" vertex="1" parent="1">
          <mxGeometry x="120" y="860" width="60" height="80" as="geometry" />
        </mxCell>
        <mxCell id="J7T1MlvASusOLPAvzm8r-16" value="ods_orders_ipd" style="text;html=1;align=center;verticalAlign=middle;resizable=0;points=[];autosize=1;strokeColor=none;fillColor=none;" vertex="1" parent="1">
          <mxGeometry x="95" y="950" width="110" height="30" as="geometry" />
        </mxCell>
        <mxCell id="J7T1MlvASusOLPAvzm8r-17" value="" style="shape=cylinder3;whiteSpace=wrap;html=1;boundedLbl=1;backgroundOutline=1;size=15;" vertex="1" parent="1">
          <mxGeometry x="250" y="860" width="60" height="80" as="geometry" />
        </mxCell>
        <mxCell id="J7T1MlvASusOLPAvzm8r-18" value="ods_payment_&lt;br&gt;method_fpd" style="text;html=1;align=center;verticalAlign=middle;resizable=0;points=[];autosize=1;strokeColor=none;fillColor=none;" vertex="1" parent="1">
          <mxGeometry x="230" y="455" width="100" height="40" as="geometry" />
        </mxCell>
        <mxCell id="J7T1MlvASusOLPAvzm8r-19" value="ods_product_fpd" style="text;html=1;align=center;verticalAlign=middle;resizable=0;points=[];autosize=1;strokeColor=none;fillColor=none;" vertex="1" parent="1">
          <mxGeometry x="225" y="330" width="110" height="30" as="geometry" />
        </mxCell>
        <mxCell id="J7T1MlvASusOLPAvzm8r-20" value="ods_returns_ipd" style="text;html=1;align=center;verticalAlign=middle;resizable=0;points=[];autosize=1;strokeColor=none;fillColor=none;" vertex="1" parent="1">
          <mxGeometry x="220" y="950" width="110" height="30" as="geometry" />
        </mxCell>
        <mxCell id="J7T1MlvASusOLPAvzm8r-21" value="ods_&lt;br&gt;subcategory_fpd" style="text;html=1;align=center;verticalAlign=middle;resizable=0;points=[];autosize=1;strokeColor=none;fillColor=none;" vertex="1" parent="1">
          <mxGeometry x="225" y="195" width="110" height="40" as="geometry" />
        </mxCell>
        <mxCell id="J7T1MlvASusOLPAvzm8r-22" value="" style="shape=cylinder3;whiteSpace=wrap;html=1;boundedLbl=1;backgroundOutline=1;size=15;" vertex="1" parent="1">
          <mxGeometry x="250" y="120" width="60" height="80" as="geometry" />
        </mxCell>
        <mxCell id="J7T1MlvASusOLPAvzm8r-23" value="" style="shape=cylinder3;whiteSpace=wrap;html=1;boundedLbl=1;backgroundOutline=1;size=15;" vertex="1" parent="1">
          <mxGeometry x="120" y="120" width="60" height="80" as="geometry" />
        </mxCell>
        <mxCell id="J7T1MlvASusOLPAvzm8r-24" value="ods_supplier_fpd" style="text;html=1;align=center;verticalAlign=middle;resizable=0;points=[];autosize=1;strokeColor=none;fillColor=none;" vertex="1" parent="1">
          <mxGeometry x="95" y="200" width="110" height="30" as="geometry" />
        </mxCell>
        <mxCell id="J7T1MlvASusOLPAvzm8r-25" value="" style="rounded=0;whiteSpace=wrap;html=1;fillColor=none;" vertex="1" parent="1">
          <mxGeometry x="80" y="80" width="280" height="570" as="geometry" />
        </mxCell>
        <mxCell id="J7T1MlvASusOLPAvzm8r-26" value="full synchonized, permanent storage, daily - fpd" style="text;html=1;align=center;verticalAlign=middle;resizable=0;points=[];autosize=1;strokeColor=none;fillColor=none;" vertex="1" parent="1">
          <mxGeometry x="85" y="80" width="270" height="30" as="geometry" />
        </mxCell>
        <mxCell id="J7T1MlvASusOLPAvzm8r-27" value="" style="rounded=0;whiteSpace=wrap;html=1;fillColor=none;" vertex="1" parent="1">
          <mxGeometry x="80" y="680" width="280" height="310" as="geometry" />
        </mxCell>
        <mxCell id="J7T1MlvASusOLPAvzm8r-28" value="incredement synchonized, &lt;br&gt;permanent storage, daily - ipd" style="text;html=1;align=center;verticalAlign=middle;resizable=0;points=[];autosize=1;strokeColor=none;fillColor=none;" vertex="1" parent="1">
          <mxGeometry x="130" y="680" width="180" height="40" as="geometry" />
        </mxCell>
        <mxCell id="J7T1MlvASusOLPAvzm8r-30" value="" style="rounded=0;whiteSpace=wrap;html=1;dashed=1;dashPattern=12 12;fillColor=none;" vertex="1" parent="1">
          <mxGeometry x="40" y="40" width="360" height="1010" as="geometry" />
        </mxCell>
        <mxCell id="J7T1MlvASusOLPAvzm8r-62" style="edgeStyle=orthogonalEdgeStyle;rounded=0;orthogonalLoop=1;jettySize=auto;html=1;entryX=0;entryY=0.5;entryDx=0;entryDy=0;" edge="1" parent="1" source="J7T1MlvASusOLPAvzm8r-31" target="J7T1MlvASusOLPAvzm8r-61">
          <mxGeometry relative="1" as="geometry" />
        </mxCell>
        <mxCell id="J7T1MlvASusOLPAvzm8r-31" value="&lt;b&gt;Operational&amp;nbsp;&lt;br&gt;Data Storage&lt;/b&gt;" style="rounded=0;whiteSpace=wrap;html=1;fillColor=#f5f5f5;fontColor=#333333;strokeColor=#666666;" vertex="1" parent="1">
          <mxGeometry x="150" y="-50" width="120" height="60" as="geometry" />
        </mxCell>
        <mxCell id="J7T1MlvASusOLPAvzm8r-32" value="" style="shape=cylinder3;whiteSpace=wrap;html=1;boundedLbl=1;backgroundOutline=1;size=15;" vertex="1" parent="1">
          <mxGeometry x="540" y="370" width="60" height="80" as="geometry" />
        </mxCell>
        <mxCell id="J7T1MlvASusOLPAvzm8r-33" value="dwd_campaign_&lt;br&gt;product_subcategory_fpd" style="text;html=1;align=center;verticalAlign=middle;resizable=0;points=[];autosize=1;strokeColor=none;fillColor=none;" vertex="1" parent="1">
          <mxGeometry x="490" y="455" width="160" height="40" as="geometry" />
        </mxCell>
        <mxCell id="J7T1MlvASusOLPAvzm8r-34" value="" style="shape=cylinder3;whiteSpace=wrap;html=1;boundedLbl=1;backgroundOutline=1;size=15;" vertex="1" parent="1">
          <mxGeometry x="540" y="520" width="60" height="80" as="geometry" />
        </mxCell>
        <mxCell id="J7T1MlvASusOLPAvzm8r-35" value="dwd_category_fpd" style="text;html=1;align=center;verticalAlign=middle;resizable=0;points=[];autosize=1;strokeColor=none;fillColor=none;" vertex="1" parent="1">
          <mxGeometry x="510" y="610" width="120" height="30" as="geometry" />
        </mxCell>
        <mxCell id="J7T1MlvASusOLPAvzm8r-36" value="" style="shape=cylinder3;whiteSpace=wrap;html=1;boundedLbl=1;backgroundOutline=1;size=15;" vertex="1" parent="1">
          <mxGeometry x="670" y="520" width="60" height="80" as="geometry" />
        </mxCell>
        <mxCell id="J7T1MlvASusOLPAvzm8r-37" value="dwd_customer_fpd" style="text;html=1;align=center;verticalAlign=middle;resizable=0;points=[];autosize=1;strokeColor=none;fillColor=none;" vertex="1" parent="1">
          <mxGeometry x="640" y="610" width="120" height="30" as="geometry" />
        </mxCell>
        <mxCell id="J7T1MlvASusOLPAvzm8r-38" value="" style="shape=cylinder3;whiteSpace=wrap;html=1;boundedLbl=1;backgroundOutline=1;size=15;" vertex="1" parent="1">
          <mxGeometry x="670" y="370" width="60" height="80" as="geometry" />
        </mxCell>
        <mxCell id="J7T1MlvASusOLPAvzm8r-39" value="dwd_customer_&lt;br&gt;product_rating_ipd" style="text;html=1;align=center;verticalAlign=middle;resizable=0;points=[];autosize=1;strokeColor=none;fillColor=none;" vertex="1" parent="1">
          <mxGeometry x="640" y="820" width="120" height="40" as="geometry" />
        </mxCell>
        <mxCell id="J7T1MlvASusOLPAvzm8r-40" value="" style="shape=cylinder3;whiteSpace=wrap;html=1;boundedLbl=1;backgroundOutline=1;size=15;" vertex="1" parent="1">
          <mxGeometry x="540" y="240" width="60" height="80" as="geometry" />
        </mxCell>
        <mxCell id="J7T1MlvASusOLPAvzm8r-41" value="dwd_marketing_&lt;br&gt;campaigns_fpd" style="text;html=1;align=center;verticalAlign=middle;resizable=0;points=[];autosize=1;strokeColor=none;fillColor=none;" vertex="1" parent="1">
          <mxGeometry x="515" y="325" width="110" height="40" as="geometry" />
        </mxCell>
        <mxCell id="J7T1MlvASusOLPAvzm8r-42" value="" style="shape=cylinder3;whiteSpace=wrap;html=1;boundedLbl=1;backgroundOutline=1;size=15;" vertex="1" parent="1">
          <mxGeometry x="670" y="240" width="60" height="80" as="geometry" />
        </mxCell>
        <mxCell id="J7T1MlvASusOLPAvzm8r-43" value="dwd_orderitem_ipd" style="text;html=1;align=center;verticalAlign=middle;resizable=0;points=[];autosize=1;strokeColor=none;fillColor=none;" vertex="1" parent="1">
          <mxGeometry x="505" y="820" width="130" height="30" as="geometry" />
        </mxCell>
        <mxCell id="J7T1MlvASusOLPAvzm8r-44" value="" style="shape=cylinder3;whiteSpace=wrap;html=1;boundedLbl=1;backgroundOutline=1;size=15;" vertex="1" parent="1">
          <mxGeometry x="540" y="730" width="60" height="80" as="geometry" />
        </mxCell>
        <mxCell id="J7T1MlvASusOLPAvzm8r-45" value="" style="shape=cylinder3;whiteSpace=wrap;html=1;boundedLbl=1;backgroundOutline=1;size=15;" vertex="1" parent="1">
          <mxGeometry x="670" y="730" width="60" height="80" as="geometry" />
        </mxCell>
        <mxCell id="J7T1MlvASusOLPAvzm8r-46" value="" style="shape=cylinder3;whiteSpace=wrap;html=1;boundedLbl=1;backgroundOutline=1;size=15;" vertex="1" parent="1">
          <mxGeometry x="540" y="860" width="60" height="80" as="geometry" />
        </mxCell>
        <mxCell id="J7T1MlvASusOLPAvzm8r-47" value="dwd_orders_ipd" style="text;html=1;align=center;verticalAlign=middle;resizable=0;points=[];autosize=1;strokeColor=none;fillColor=none;" vertex="1" parent="1">
          <mxGeometry x="515" y="950" width="110" height="30" as="geometry" />
        </mxCell>
        <mxCell id="J7T1MlvASusOLPAvzm8r-48" value="" style="shape=cylinder3;whiteSpace=wrap;html=1;boundedLbl=1;backgroundOutline=1;size=15;" vertex="1" parent="1">
          <mxGeometry x="670" y="860" width="60" height="80" as="geometry" />
        </mxCell>
        <mxCell id="J7T1MlvASusOLPAvzm8r-49" value="dwd_payment_&lt;br&gt;method_fpd" style="text;html=1;align=center;verticalAlign=middle;resizable=0;points=[];autosize=1;strokeColor=none;fillColor=none;" vertex="1" parent="1">
          <mxGeometry x="650" y="455" width="100" height="40" as="geometry" />
        </mxCell>
        <mxCell id="J7T1MlvASusOLPAvzm8r-50" value="dwd_product_fpd" style="text;html=1;align=center;verticalAlign=middle;resizable=0;points=[];autosize=1;strokeColor=none;fillColor=none;" vertex="1" parent="1">
          <mxGeometry x="640" y="330" width="120" height="30" as="geometry" />
        </mxCell>
        <mxCell id="J7T1MlvASusOLPAvzm8r-51" value="dwd_returns_ipd" style="text;html=1;align=center;verticalAlign=middle;resizable=0;points=[];autosize=1;strokeColor=none;fillColor=none;" vertex="1" parent="1">
          <mxGeometry x="640" y="950" width="110" height="30" as="geometry" />
        </mxCell>
        <mxCell id="J7T1MlvASusOLPAvzm8r-52" value="dwd_&lt;br&gt;subcategory_fpd" style="text;html=1;align=center;verticalAlign=middle;resizable=0;points=[];autosize=1;strokeColor=none;fillColor=none;" vertex="1" parent="1">
          <mxGeometry x="645" y="195" width="110" height="40" as="geometry" />
        </mxCell>
        <mxCell id="J7T1MlvASusOLPAvzm8r-53" value="" style="shape=cylinder3;whiteSpace=wrap;html=1;boundedLbl=1;backgroundOutline=1;size=15;" vertex="1" parent="1">
          <mxGeometry x="670" y="120" width="60" height="80" as="geometry" />
        </mxCell>
        <mxCell id="J7T1MlvASusOLPAvzm8r-54" value="" style="shape=cylinder3;whiteSpace=wrap;html=1;boundedLbl=1;backgroundOutline=1;size=15;" vertex="1" parent="1">
          <mxGeometry x="540" y="120" width="60" height="80" as="geometry" />
        </mxCell>
        <mxCell id="J7T1MlvASusOLPAvzm8r-55" value="dwd_supplier_fpd" style="text;html=1;align=center;verticalAlign=middle;resizable=0;points=[];autosize=1;strokeColor=none;fillColor=none;" vertex="1" parent="1">
          <mxGeometry x="510" y="200" width="120" height="30" as="geometry" />
        </mxCell>
        <mxCell id="J7T1MlvASusOLPAvzm8r-57" value="full synchonized, permanent storage, daily - fpd" style="text;html=1;align=center;verticalAlign=middle;resizable=0;points=[];autosize=1;strokeColor=none;fillColor=none;" vertex="1" parent="1">
          <mxGeometry x="505" y="80" width="270" height="30" as="geometry" />
        </mxCell>
        <mxCell id="J7T1MlvASusOLPAvzm8r-59" value="incredement synchonized, &lt;br&gt;permanent storage, daily - ipd" style="text;html=1;align=center;verticalAlign=middle;resizable=0;points=[];autosize=1;strokeColor=none;fillColor=none;" vertex="1" parent="1">
          <mxGeometry x="550" y="680" width="180" height="40" as="geometry" />
        </mxCell>
        <mxCell id="J7T1MlvASusOLPAvzm8r-94" style="edgeStyle=orthogonalEdgeStyle;rounded=0;orthogonalLoop=1;jettySize=auto;html=1;entryX=0;entryY=0.5;entryDx=0;entryDy=0;" edge="1" parent="1" source="J7T1MlvASusOLPAvzm8r-61" target="J7T1MlvASusOLPAvzm8r-93">
          <mxGeometry relative="1" as="geometry" />
        </mxCell>
        <mxCell id="J7T1MlvASusOLPAvzm8r-95" style="edgeStyle=orthogonalEdgeStyle;rounded=0;orthogonalLoop=1;jettySize=auto;html=1;entryX=0;entryY=0.5;entryDx=0;entryDy=0;" edge="1" parent="1" source="J7T1MlvASusOLPAvzm8r-61" target="J7T1MlvASusOLPAvzm8r-96">
          <mxGeometry relative="1" as="geometry">
            <mxPoint x="1010" y="740" as="targetPoint" />
            <Array as="points">
              <mxPoint x="1020" y="-20" />
            </Array>
          </mxGeometry>
        </mxCell>
        <mxCell id="J7T1MlvASusOLPAvzm8r-61" value="&lt;b&gt;Data Warehouse&lt;/b&gt;&lt;div&gt;&lt;b&gt;Details&lt;/b&gt;&lt;/div&gt;" style="rounded=0;whiteSpace=wrap;html=1;fillColor=#f5f5f5;fontColor=#333333;strokeColor=#666666;" vertex="1" parent="1">
          <mxGeometry x="570" y="-50" width="120" height="60" as="geometry" />
        </mxCell>
        <mxCell id="J7T1MlvASusOLPAvzm8r-63" value="Data Cleaning, Masking, Standardized, etc" style="text;html=1;align=center;verticalAlign=middle;resizable=0;points=[];autosize=1;strokeColor=none;fillColor=none;fontStyle=1" vertex="1" parent="1">
          <mxGeometry x="289" y="-50" width="250" height="30" as="geometry" />
        </mxCell>
        <mxCell id="J7T1MlvASusOLPAvzm8r-67" value="" style="shape=cylinder3;whiteSpace=wrap;html=1;boundedLbl=1;backgroundOutline=1;size=15;" vertex="1" parent="1">
          <mxGeometry x="990" y="850" width="60" height="80" as="geometry" />
        </mxCell>
        <mxCell id="J7T1MlvASusOLPAvzm8r-68" value="dim_product_fpd" style="text;html=1;align=center;verticalAlign=middle;resizable=0;points=[];autosize=1;strokeColor=none;fillColor=none;" vertex="1" parent="1">
          <mxGeometry x="965" y="940" width="110" height="30" as="geometry" />
        </mxCell>
        <mxCell id="J7T1MlvASusOLPAvzm8r-73" value="" style="shape=cylinder3;whiteSpace=wrap;html=1;boundedLbl=1;backgroundOutline=1;size=15;" vertex="1" parent="1">
          <mxGeometry x="1120" y="850" width="60" height="80" as="geometry" />
        </mxCell>
        <mxCell id="J7T1MlvASusOLPAvzm8r-74" value="dwm_orders_with_items" style="text;html=1;align=center;verticalAlign=middle;resizable=0;points=[];autosize=1;strokeColor=none;fillColor=none;" vertex="1" parent="1">
          <mxGeometry x="1015" y="290" width="150" height="30" as="geometry" />
        </mxCell>
        <mxCell id="J7T1MlvASusOLPAvzm8r-75" value="" style="shape=cylinder3;whiteSpace=wrap;html=1;boundedLbl=1;backgroundOutline=1;size=15;" vertex="1" parent="1">
          <mxGeometry x="990" y="720" width="60" height="80" as="geometry" />
        </mxCell>
        <mxCell id="J7T1MlvASusOLPAvzm8r-76" value="dim_customer_fpd" style="text;html=1;align=center;verticalAlign=middle;resizable=0;points=[];autosize=1;strokeColor=none;fillColor=none;" vertex="1" parent="1">
          <mxGeometry x="960" y="810" width="120" height="30" as="geometry" />
        </mxCell>
        <mxCell id="J7T1MlvASusOLPAvzm8r-77" value="" style="shape=cylinder3;whiteSpace=wrap;html=1;boundedLbl=1;backgroundOutline=1;size=15;" vertex="1" parent="1">
          <mxGeometry x="1120" y="720" width="60" height="80" as="geometry" />
        </mxCell>
        <mxCell id="J7T1MlvASusOLPAvzm8r-80" value="" style="shape=cylinder3;whiteSpace=wrap;html=1;boundedLbl=1;backgroundOutline=1;size=15;" vertex="1" parent="1">
          <mxGeometry x="1060" y="185" width="60" height="80" as="geometry" />
        </mxCell>
        <mxCell id="J7T1MlvASusOLPAvzm8r-84" value="dim_supplier_fpd" style="text;html=1;align=center;verticalAlign=middle;resizable=0;points=[];autosize=1;strokeColor=none;fillColor=none;" vertex="1" parent="1">
          <mxGeometry x="1095" y="940" width="110" height="30" as="geometry" />
        </mxCell>
        <mxCell id="J7T1MlvASusOLPAvzm8r-85" value="dim_payment&lt;br&gt;_method_fpd" style="text;html=1;align=center;verticalAlign=middle;resizable=0;points=[];autosize=1;strokeColor=none;fillColor=none;" vertex="1" parent="1">
          <mxGeometry x="1100" y="805" width="100" height="40" as="geometry" />
        </mxCell>
        <mxCell id="J7T1MlvASusOLPAvzm8r-87" value="dim_category_fpd" style="text;html=1;align=center;verticalAlign=middle;resizable=0;points=[];autosize=1;strokeColor=none;fillColor=none;" vertex="1" parent="1">
          <mxGeometry x="1090" y="680" width="120" height="30" as="geometry" />
        </mxCell>
        <mxCell id="J7T1MlvASusOLPAvzm8r-88" value="" style="shape=cylinder3;whiteSpace=wrap;html=1;boundedLbl=1;backgroundOutline=1;size=15;" vertex="1" parent="1">
          <mxGeometry x="1120" y="600" width="60" height="80" as="geometry" />
        </mxCell>
        <mxCell id="J7T1MlvASusOLPAvzm8r-89" value="" style="shape=cylinder3;whiteSpace=wrap;html=1;boundedLbl=1;backgroundOutline=1;size=15;" vertex="1" parent="1">
          <mxGeometry x="990" y="600" width="60" height="80" as="geometry" />
        </mxCell>
        <mxCell id="J7T1MlvASusOLPAvzm8r-90" value="dim_campaign_discount" style="text;html=1;align=center;verticalAlign=middle;resizable=0;points=[];autosize=1;strokeColor=none;fillColor=none;" vertex="1" parent="1">
          <mxGeometry x="945" y="680" width="150" height="30" as="geometry" />
        </mxCell>
        <mxCell id="J7T1MlvASusOLPAvzm8r-91" value="full synchonized, permanent storage, daily - fpd" style="text;html=1;align=center;verticalAlign=middle;resizable=0;points=[];autosize=1;strokeColor=none;fillColor=none;" vertex="1" parent="1">
          <mxGeometry x="955" y="560" width="270" height="30" as="geometry" />
        </mxCell>
        <mxCell id="J7T1MlvASusOLPAvzm8r-92" value="incredement synchonized, &lt;br&gt;permanent storage, daily - ipd" style="text;html=1;align=center;verticalAlign=middle;resizable=0;points=[];autosize=1;strokeColor=none;fillColor=none;" vertex="1" parent="1">
          <mxGeometry x="1000" y="105" width="180" height="40" as="geometry" />
        </mxCell>
        <mxCell id="J7T1MlvASusOLPAvzm8r-93" value="&lt;b&gt;Dimensional&lt;/b&gt;" style="rounded=0;whiteSpace=wrap;html=1;fillColor=#f5f5f5;fontColor=#333333;strokeColor=#666666;" vertex="1" parent="1">
          <mxGeometry x="1030" y="410" width="120" height="60" as="geometry" />
        </mxCell>
        <mxCell id="J7T1MlvASusOLPAvzm8r-96" value="&lt;b&gt;Data Warehouse&lt;/b&gt;&lt;div&gt;&lt;b&gt;Middle&lt;/b&gt;&lt;/div&gt;" style="rounded=0;whiteSpace=wrap;html=1;fillColor=#f5f5f5;fontColor=#333333;strokeColor=#666666;" vertex="1" parent="1">
          <mxGeometry x="1030" y="-50" width="120" height="60" as="geometry" />
        </mxCell>
        <mxCell id="J7T1MlvASusOLPAvzm8r-101" value="&lt;b&gt;Dimensional&lt;/b&gt;" style="rounded=0;whiteSpace=wrap;html=1;fillColor=#f5f5f5;fontColor=#333333;strokeColor=#666666;" vertex="1" parent="1">
          <mxGeometry x="1450" y="-340" width="120" height="60" as="geometry" />
        </mxCell>
        <mxCell id="J7T1MlvASusOLPAvzm8r-102" value="&lt;b&gt;Identify the dimensions, and facts&lt;/b&gt;" style="text;html=1;align=center;verticalAlign=middle;resizable=0;points=[];autosize=1;strokeColor=none;fillColor=none;" vertex="1" parent="1">
          <mxGeometry x="750" y="-50" width="220" height="30" as="geometry" />
        </mxCell>
        <mxCell id="J7T1MlvASusOLPAvzm8r-104" value="&lt;b&gt;Lowest gratularity&lt;/b&gt;" style="text;html=1;align=center;verticalAlign=middle;resizable=0;points=[];autosize=1;strokeColor=none;fillColor=none;" vertex="1" parent="1">
          <mxGeometry x="1025" y="40" width="130" height="30" as="geometry" />
        </mxCell>
      </root>
    </mxGraphModel>
  </diagram>
</mxfile>
